# xmcd
#
# Track frame offsets: 
#        183
#        37845
#        70528
#        94633
#        128508
#
# Disc length: 2244 seconds
#
# Revision: 1
# Processed by: cddbd v1.5.2PL0 Copyright (c) Steve Scherf et al.
# Submitted via: ExactAudioCopy v0.99pb4
#
DISCID=2e08c205
DTITLE=Rea Chris - It´s All Gone
DYEAR=1987
DGENRE=Blues
TTITLE0=On The Beach
TTITLE1=Working On It
TTITLE2=Loving You Again
TTITLE3=Steel River
TTITLE4=It´s All Gone
EXTD=
EXTT0=
EXTT1=
EXTT2=
EXTT3=
EXTT4=
PLAYORDER=
